<?xml version="1.0" encoding="iso-8859-1"?>
<!-- Uploaded to: SVG Repo, www.svgrepo.com, Generator: SVG Repo Mixer Tools -->
<!DOCTYPE svg PUBLIC "-//W3C//DTD SVG 1.1//EN" "http://www.w3.org/Graphics/SVG/1.1/DTD/svg11.dtd">
<svg fill="#000000" version="1.1" id="Capa_1" xmlns="http://www.w3.org/2000/svg" xmlns:xlink="http://www.w3.org/1999/xlink" 
	 width="800px" height="800px" viewBox="0 0 278.381 278.38"
	 xml:space="preserve">
<g>
	<g>
		<path d="M271.493,93.667l-44.278-30.569c-7.224-4.989-18.822-9.036-25.901-9.036h-12.811
			c-0.646,18.209-22.457,32.845-49.316,32.845c-26.866,0-48.677-14.642-49.316-32.845c0,0-5.737,0-12.811,0
			s-18.67,4.046-25.903,9.036L6.886,93.667c-7.226,4.989-9.062,14.911-4.088,22.152l12.821,18.69
			c4.976,7.244,15.431,10.056,23.358,6.266l34.083-16.254v83.891c0,8.781,7.123,15.907,15.907,15.907h37.096h26.256h37.097
			c8.787,0,15.906-7.126,15.906-15.907v-83.896l34.083,16.26c7.928,3.779,18.388,0.979,23.358-6.271l12.826-18.69
			C280.555,108.572,278.717,98.656,271.493,93.667z"/>
	</g>
</g>
</svg>